<svg width="14" height="14" viewBox="0 0 14 14" fill="none" xmlns="http://www.w3.org/2000/svg">
<path d="M5.35922 2.71026L4.1745 0.693941C3.94294 0.299842 3.44045 0.165195 3.0645 0.425182C2.32479 0.936722 1.22234 1.83413 0.948087 2.7936C0.52236 4.28301 2.05705 7.83002 4.14358 9.91658C6.23016 12.0032 9.59626 13.3568 11.0857 12.9312C12.0451 12.6571 12.9427 11.5551 13.4545 10.8155C13.7146 10.4396 13.58 9.93696 13.1858 9.70536L11.1695 8.52061C10.787 8.29586 10.2957 8.40684 10.0469 8.77419L9.49257 9.59274C9.25267 9.947 8.78694 10.0607 8.42855 9.82698C7.85131 9.4506 6.95284 8.79836 6.0169 7.86242C5.08108 6.9266 4.42888 6.02824 4.05248 5.45099C3.81873 5.0925 3.93252 4.62666 4.28696 4.38682L5.1054 3.83301C5.47293 3.58431 5.58403 3.09287 5.35922 2.71026Z" fill="#0065FF"/>
</svg>
