<svg width="22" height="16" viewBox="0 0 22 16" fill="none" xmlns="http://www.w3.org/2000/svg">
<path d="M6.99974 15.5C3.92426 15.5 1.69745 15.5 0.251764 13.5909C-1.19392 11.6818 3.92428 10.25 6.99976 10.25C10.0752 10.25 15.1942 11.6818 13.7481 13.5909C12.3021 15.4999 10.0752 15.5 6.99974 15.5Z" fill="#0065FF"/>
<path fill-rule="evenodd" clip-rule="evenodd" d="M14.8291 13.3144C14.8912 13.3144 14.9536 13.3144 15.0166 13.3144C17.6527 13.3144 19.5614 13.3143 20.8009 11.5C22.0404 9.68575 17.6527 8.32501 15.0166 8.32501C13.2625 8.32501 10.7332 8.92748 9.60205 9.86517C12.4965 10.255 15.8516 11.6008 14.8291 13.3144Z" fill="#0065FF"/>
<ellipse cx="6.99997" cy="4.25" rx="3.88889" ry="3.75" fill="#0065FF"/>
<path fill-rule="evenodd" clip-rule="evenodd" d="M11.7269 4.80576C11.7548 4.62442 11.7693 4.43884 11.7693 4.25C11.7693 3.87045 11.7108 3.50407 11.6021 3.15878C11.8872 1.64614 13.2465 0.5 14.8804 0.5C16.7213 0.5 18.2137 1.95507 18.2137 3.75C18.2137 5.54492 16.7213 7 14.8804 7C13.4185 7 12.1764 6.08243 11.7269 4.80576Z" fill="#0065FF"/>
</svg>
