<svg width="150" height="43" viewBox="0 0 150 43" fill="none" xmlns="http://www.w3.org/2000/svg">
<g clip-path="url(#clip0_36_1558)">
<path d="M67.0494 9.67185L59.8487 19.274H59.0266L51.9845 9.6394V25.7139H47.8126V3.60695H52.6119L59.5278 13.1154L66.4436 3.60695H71.2141V25.7139H67.0458V9.67185H67.0494Z" fill="#221F1F"/>
<path d="M75.1658 25.6851V3.57449H79.3016V25.6815H75.1658V25.6851Z" fill="#221F1F"/>
<path d="M97.496 8.91465C96.7388 7.64903 94.6547 6.45191 92.2533 6.45191C89.1595 6.45191 87.6739 7.74638 87.6739 9.39061C87.6739 11.3161 89.9492 11.8534 92.5994 12.1707C97.2112 12.7404 101.506 13.9375 101.506 19.2127C101.506 24.1382 97.1463 26.2548 92.2208 26.2548C87.7028 26.2548 84.2304 24.8666 82.5862 20.8245L86.0621 19.0252C87.0393 21.4555 89.5994 22.53 92.2821 22.53C94.9035 22.53 97.3662 21.6142 97.3662 19.2127C97.3662 17.1286 95.1883 16.274 92.2496 15.9603C87.7316 15.4231 83.5633 14.2223 83.5633 9.26441C83.5633 4.71753 88.0489 2.85335 92.1234 2.8209C95.567 2.8209 99.1331 3.80167 100.81 7.21273L97.496 8.91465Z" fill="#221F1F"/>
<path d="M104.725 25.6851V3.60695H120.612V7.61656H108.894V13.649H119.981V17.5036H108.894V25.6851H104.725Z" fill="#3D3737"/>
<path d="M123.833 25.6851V3.57449H127.968V25.6815H123.833V25.6851Z" fill="#3D3737"/>
<path d="M138.616 7.36416H131.606V3.57449C137.985 3.57449 143.386 3.57449 149.797 3.57449V7.36416H142.788V25.6815H138.619V7.36416H138.616Z" fill="#3D3737"/>
<path d="M51.0318 33.7692H47.646V33.1274H55.1352V33.7692H51.7494V42.4772H51.0282V33.7692H51.0318Z" fill="#3D3737"/>
<path d="M57.2122 37.4327H62.6965V38.0889H57.2122V41.7812H63.1256V42.4771H56.5018V33.113H62.9634V33.7944H57.2122V37.4327Z" fill="#3D3737"/>
<path d="M72.4466 41.179C71.5091 42.1165 70.2651 42.5853 69.0356 42.5853C65.8769 42.5853 64.2327 40.3786 64.2218 37.8509C64.1966 35.3485 65.8264 33.0084 69.0356 33.0084C70.2651 33.0084 71.5091 33.4771 72.4466 34.4146L71.949 34.8365C71.1449 34.0324 70.0884 33.6466 69.0319 33.6466C66.3024 33.6466 64.8997 35.5721 64.9105 37.8185C64.9358 40.0108 66.3276 41.911 69.0319 41.911C70.0884 41.911 71.1593 41.5108 71.9598 40.7211L72.4466 41.179Z" fill="#3D3737"/>
<path d="M80.8301 42.4771V38.2223H74.8662V42.4771H74.145V33.113H74.8662V37.5661H80.8301V33.113H81.5513V42.4771H80.8301Z" fill="#3D3737"/>
<path d="M83.9308 33.113L90.2301 40.8581V33.113H90.9368V42.4771H90.6556L84.3419 34.7464V42.4771H83.6207V33.113H83.9308Z" fill="#3D3737"/>
<path d="M102.201 37.8077C102.187 40.2704 100.622 42.6358 97.4813 42.6358C94.3371 42.6358 92.7614 40.256 92.7614 37.7788C92.7614 35.2656 94.3263 32.9651 97.4813 32.9651C100.636 32.9651 102.212 35.28 102.201 37.8077ZM93.4645 37.7932C93.4789 39.9062 94.8166 41.9687 97.4777 41.9687C100.153 41.9687 101.502 39.9098 101.502 37.7932C101.502 35.6262 100.164 33.6322 97.4777 33.6322C94.7878 33.6358 93.4537 35.5865 93.4645 37.7932Z" fill="#3D3737"/>
<path d="M104.632 33.113V41.792H109.903V42.4735H103.911V33.113H104.632Z" fill="#383130"/>
<path d="M120.028 37.8077C120.014 40.2704 118.449 42.6358 115.308 42.6358C112.164 42.6358 110.589 40.256 110.589 37.7788C110.589 35.2656 112.153 32.9651 115.308 32.9651C118.463 32.9651 120.039 35.28 120.028 37.8077ZM111.292 37.7932C111.306 39.9062 112.644 41.9687 115.305 41.9687C117.98 41.9687 119.329 39.9098 119.329 37.7932C119.329 35.6262 117.991 33.6322 115.305 33.6322C112.615 33.6358 111.277 35.5865 111.292 37.7932Z" fill="#3D3737"/>
<path d="M129.108 34.8365C128.293 34.0324 127.154 33.6322 126.097 33.6322C123.353 33.6322 121.951 35.637 121.965 37.804C121.965 40.0108 123.371 41.911 126.097 41.911C127.1 41.911 128.145 41.5613 128.946 40.8257V38.2043H125.683V37.5769H129.627V41.0817C128.65 42.0589 127.485 42.5925 126.097 42.5925C122.913 42.5925 121.269 40.3714 121.269 37.8185C121.255 34.8906 123.249 32.9759 126.097 32.9759C127.327 32.9759 128.571 33.4447 129.523 34.3822L129.108 34.8365Z" fill="#3D3737"/>
<path d="M131.593 42.4771V33.113H132.299V42.4771H131.593Z" fill="#3D3737"/>
<path d="M135.068 37.4327H140.552V38.0889H135.068V41.7812H140.981V42.4771H134.361V33.113H140.823V33.7944H135.071V37.4327H135.068Z" fill="#3D3737"/>
<path d="M148.925 34.9194C148.244 33.8233 147.148 33.661 146.091 33.6502C144.995 33.6502 143.257 34.0505 143.257 35.5505C143.257 36.7404 144.541 37.0216 146.12 37.3173C147.927 37.667 149.798 37.9843 149.798 40.0072C149.784 42.1202 147.656 42.6286 146.091 42.6286C144.635 42.6286 142.976 42.0264 142.251 40.5949L142.893 40.274C143.47 41.4098 144.941 41.9723 146.088 41.9723C147.238 41.9723 149.07 41.6514 149.07 39.9928C149.084 38.5865 147.534 38.28 145.994 37.9843C144.281 37.649 142.529 37.3029 142.529 35.5757C142.489 33.5961 144.548 32.9795 146.088 32.9795C147.425 32.9795 148.59 33.1923 149.513 34.5733L148.925 34.9194Z" fill="#3D3737"/>
<path d="M11.0332 19.0937L5.0873 24.6033C3.85773 25.7428 1.94307 25.6707 0.803646 24.4411C-0.332173 23.2151 -0.260057 21.2969 0.969511 20.1574L6.91542 14.6478C8.14499 13.5084 10.0597 13.5805 11.1991 14.8101C12.3385 16.036 12.2628 17.9543 11.0332 19.0937Z" fill="#221F1F"/>
<path d="M6.32097 30.387L0.811369 24.4411C-0.328056 23.2115 -0.25594 21.2969 0.973629 20.1574C2.19959 19.0216 4.11785 19.0937 5.25727 20.3233L10.7669 26.2692C11.9063 27.4988 11.8342 29.4135 10.6046 30.5529C9.37867 31.6923 7.4604 31.6166 6.32097 30.387Z" fill="#3D3737"/>
<path d="M27.7929 36.2716L21.8469 41.7812C20.6174 42.9206 18.7027 42.8485 17.5633 41.6189C16.4275 40.393 16.4996 38.4747 17.7292 37.3353L23.6751 31.8257C24.9046 30.6863 26.8193 30.7584 27.9587 31.9879C29.0981 33.2175 29.0224 35.1358 27.7929 36.2716Z" fill="#221F1F"/>
<path d="M16.4964 31.5661L22.006 37.512C23.1454 38.7416 23.0733 40.6562 21.8437 41.7957C20.6177 42.9315 18.6995 42.8594 17.5601 41.6298L12.054 35.6803C10.9146 34.4507 10.9867 32.536 12.2163 31.3966C13.4423 30.2608 15.3605 30.3365 16.4964 31.5661Z" fill="#3D3737"/>
<path d="M15.9839 7.34972L21.9298 12.8593C23.1594 13.9988 23.2315 15.9134 22.0957 17.143C20.9599 18.3689 19.0416 18.4411 17.812 17.3052L11.8661 11.792C10.6365 10.6526 10.5644 8.73794 11.7003 7.50837C12.8397 6.28241 14.7543 6.2139 15.9839 7.34972Z" fill="#3D3737"/>
<path d="M27.6089 11.2007L22.0993 17.1466C20.9599 18.3762 19.0452 18.4483 17.8157 17.3125C16.5897 16.1767 16.5176 14.2584 17.6534 13.0288L23.163 7.08291C24.3024 5.85334 26.2171 5.78122 27.4467 6.91704C28.6762 8.05286 28.7483 9.97113 27.6089 11.2007Z" fill="#221F1F"/>
<path d="M29.0589 26.0024L35.0048 20.4928C36.2343 19.3533 38.149 19.4255 39.2884 20.655C40.4243 21.881 40.3521 23.7993 39.1226 24.9387L33.1767 30.4447C31.9471 31.5841 30.0324 31.512 28.893 30.2824C27.7572 29.0601 27.8293 27.1418 29.0589 26.0024Z" fill="#221F1F"/>
<path d="M33.775 14.7019L39.2847 20.6478C40.4241 21.8774 40.352 23.792 39.1224 24.9315C37.8964 26.0673 35.9782 25.9952 34.8387 24.7656L29.3327 18.8197C28.1933 17.5901 28.2654 15.6755 29.495 14.536C30.7173 13.4002 32.6356 13.4723 33.775 14.7019Z" fill="#3D3737"/>
<path d="M13.0916 25.0288C14.3701 25.0288 15.4065 23.9924 15.4065 22.7139C15.4065 21.4354 14.3701 20.399 13.0916 20.399C11.8131 20.399 10.7767 21.4354 10.7767 22.7139C10.7767 23.9924 11.8131 25.0288 13.0916 25.0288Z" fill="#221F1F"/>
<path d="M27.2915 25.0288C28.57 25.0288 29.6064 23.9924 29.6064 22.7139C29.6064 21.4354 28.57 20.399 27.2915 20.399C26.013 20.399 24.9766 21.4354 24.9766 22.7139C24.9766 23.9924 26.013 25.0288 27.2915 25.0288Z" fill="#221F1F"/>
<path d="M20.448 31.1226C21.7264 31.1226 22.7629 30.0862 22.7629 28.8077C22.7629 27.5292 21.7264 26.4928 20.448 26.4928C19.1695 26.4928 18.1331 27.5292 18.1331 28.8077C18.1331 30.0862 19.1695 31.1226 20.448 31.1226Z" fill="#221F1F"/>
<path d="M30.8291 5.57209C32.1076 5.57209 33.144 4.53567 33.144 3.25719C33.144 1.9787 32.1076 0.942284 30.8291 0.942284C29.5506 0.942284 28.5142 1.9787 28.5142 3.25719C28.5142 4.53567 29.5506 5.57209 30.8291 5.57209Z" fill="#221F1F"/>
</g>
<defs>
<clipPath id="clip0_36_1558">
<rect width="150" height="41.8269" fill="white" transform="translate(0 0.942307)"/>
</clipPath>
</defs>
</svg>
